<?xml version="1.0" encoding="UTF-8"?>
<svg width="148px" height="68px" viewBox="0 0 148 68" version="1.1" xmlns="http://www.w3.org/2000/svg" xmlns:xlink="http://www.w3.org/1999/xlink">
    <title>Clipart/logos/asharq/combo (arabic, english, no-emblem)</title>
    <g id="-" stroke="none" stroke-width="1" fill="none" fill-rule="evenodd">
        <g id="Components/desktop/statics/navigation-(large)-(TRIAL-1)" transform="translate(-1308.000000, -62.000000)">
            <g id="Clipart/logos/asharq/combo-(arabic,-english,-no-emblem)" transform="translate(1308.000000, 62.000000)">
                <g id="Clipart/logos/asharq/arabic">
                    <rect id="spacer" x="0" y="0" width="148" height="57.0930233"></rect>
                    <path d="M131.305584,1.76290304 L131.305584,47.8103583 L122.201015,47.8103583 C118.487021,48.099139 114.796381,47.0115704 111.827411,44.7534349 C109.364288,47.1487647 105.990507,48.3597242 102.572589,48.0752916 C98.8747635,48.3137679 95.2846029,46.7716123 92.9035533,43.9219518 C90.551273,46.7771631 86.9744221,48.322689 83.2913706,48.0752916 C79.638742,48.3351498 76.0424458,47.0620971 73.3604061,44.5598298 C70.8129715,46.6999806 67.5769893,47.8371881 64.2558376,47.7594095 C63.0761421,54.5661589 59.3218274,58.5116279 48.8,58.5116279 L46.9583756,58.5116279 L46.9583756,49.654702 L48.8040609,49.654702 C52.3045685,49.654702 53.7035533,48.3341111 53.7035533,39.8338263 L53.7035533,16.1936191 L64.7431472,16.1936191 L64.7431472,38.9432426 L66.5015228,38.9432426 C68.5319797,38.9432426 70.3593909,38.3277821 70.3593909,35.4033254 L70.3593909,16.1936191 L81.4010152,16.1936191 L81.4010152,35.29939 C81.4010152,38.3074026 82.4527919,39.1877965 84.2071066,39.1877965 C85.9614213,39.1877965 87.013198,38.3114785 87.013198,35.29939 L87.013198,16.1936191 L98.0467005,16.1936191 L98.0467005,35.3156936 C98.0467005,38.3094405 99.1005076,39.1877965 100.854822,39.1877965 C102.609137,39.1877965 103.660914,38.3114785 103.660914,35.29939 L103.660914,16.1936191 L114.692386,16.1936191 L114.692386,35.3951736 C114.692386,38.3237062 116.538071,38.9350908 118.550254,38.9350908 L120.308629,38.9350908 L120.308629,1.76290304 L131.305584,1.76290304 Z M46.1705584,16.1936191 L46.1705584,37.1722651 C46.1705584,53.9894193 36.5380711,58.50959 24.4446701,58.50959 C9.02335025,58.50959 0,52.0513299 0,38.3338959 L0,27.7039545 L11.035533,27.7039545 L11.035533,36.2633398 C11.035533,46.8851295 16.1177665,49.6282087 24.5380711,49.6282087 C28.9340102,49.6282087 32.1705584,48.9312302 33.8253807,45.8478135 L32.8568528,45.8478135 C22.5177665,45.5441591 16.5563452,40.9750777 16.5563452,31.4232112 C16.5563452,20.5303744 23.9147208,16.1936191 33.5593909,16.1936191 L46.1705584,16.1936191 Z M148,1.77105484 L148,47.8022065 L136.956345,47.8022065 L136.956345,1.77105484 L148,1.77105484 Z M35.1370558,24.9567994 L33.3908629,24.9567994 C29.3563452,24.9567994 27.5979695,27.4369832 27.5979695,31.0706461 L27.5878173,31.0563804 C27.5878173,35.4053634 29.3461929,37.1702271 33.3807107,37.1702271 L35.1370558,37.1702271 L35.1370558,24.9567994 Z M75.6142132,0.851945198 C79.0541744,0.851945198 81.8434422,3.64968109 81.8456853,7.10233445 C81.8479257,10.5549878 79.0622933,13.3563702 75.622335,13.3608702 L75.6060914,13.3608702 C72.1661331,13.3563702 69.3805007,10.5549878 69.3827411,7.10233445 C69.3849842,3.64968109 72.174252,0.851945198 75.6142132,0.851945198 Z M106.131487,1.26294637 C108.474201,0.295928458 111.166679,0.841816559 112.951724,2.64571999 C114.73677,4.44962342 115.26226,7.15569863 114.282828,9.50040211 C113.303397,11.8451056 111.012249,13.3659139 108.479188,13.3528036 L108.479188,13.3425286 C105.035757,13.3245861 102.253807,10.5177536 102.253807,7.06157016 C102.257951,4.51913128 103.788772,2.22996429 106.131487,1.26294637 Z M89.3943112,1.26220557 C91.7380237,0.295683683 94.4311257,0.843081176 96.2155152,2.64867735 C97.9999047,4.45427353 98.5233735,7.16167434 97.5413793,9.50609792 C96.559385,11.8505215 94.2657569,13.3692184 91.7319797,13.3527184 L91.7319797,13.3425286 C88.291724,13.320121 85.5147208,10.5145925 85.5147208,7.06157016 C85.5188848,4.5183937 87.0505987,2.22872746 89.3943112,1.26220557 Z M38.0684229,1.26220557 C40.4121354,0.295683683 43.1052374,0.843081176 44.8896269,2.64867735 C46.6740164,4.45427353 47.1974852,7.16167434 46.2154909,9.50609792 C45.2334967,11.8505215 42.9398685,13.3692184 40.4060914,13.3527184 L40.4060914,13.3425286 C36.9658357,13.320121 34.1888325,10.5145925 34.1888325,7.06157016 C34.1929965,4.5183937 35.7247104,2.22872746 38.0684229,1.26220557 Z M22.8015374,1.26294637 C25.1442522,0.295928458 27.8367294,0.841816559 29.6217749,2.64571999 C31.4068204,4.44962342 31.9323105,7.15569863 30.952879,9.50040211 C29.9734475,11.8451056 27.6823,13.3659139 25.1492386,13.3528036 L25.1492386,13.3425286 C21.7058073,13.3245861 18.9238579,10.5177536 18.9238579,7.06157016 C18.9280015,4.51913128 20.4588227,2.22996429 22.8015374,1.26294637 Z" id="Combined-Shape" fill="#C62326"></path>
                </g>
                <g id="Clipart/logos/asharq/english" transform="translate(65.340426, 54.558140)">
                    <rect id="spacer" x="0" y="0" width="82.6595745" height="13.4418605"></rect>
                    <path d="M44.1735766,3.37115913 L44.1735766,13.4418605 L41.6963063,13.4418605 L41.6963063,10.3293945 L41.0245732,10.3293945 C38.4679162,10.2703228 37.1733033,9.12962852 37.1733033,6.95008757 C37.1733033,3.83558467 39.6953558,3.37115913 41.1894531,3.37115913 L44.1735766,3.37115913 Z M27.4657421,3.41597212 C27.9051021,3.40586679 28.3443453,3.44067549 28.7766394,3.51985678 C29.0939395,3.5757626 29.3978212,3.69117879 29.6722836,3.86002812 C30.3517203,4.27660495 30.7438257,5.03624285 30.690061,5.83179974 L30.690061,9.29462181 L30.6859899,9.28240008 C30.6495445,9.51001736 30.6331969,9.74040375 30.6371366,9.97089059 C30.658982,10.0843285 30.7070855,10.191066 30.7775899,10.2825446 L28.5120173,10.2825446 C28.4648428,10.2188381 28.4334494,10.1448383 28.4204173,10.0666274 C28.3792312,9.92239125 28.3486166,9.77534017 28.3288173,9.62664533 L28.3288173,9.52276067 L28.1619018,9.52276067 L28.1619018,9.61238665 C27.9497985,9.90643742 27.6630914,10.1384923 27.3313954,10.2845815 C26.9619534,10.4324541 26.566957,10.5058313 26.1690936,10.5004987 C25.8679889,10.5056197 25.5681102,10.4608823 25.2815917,10.3680966 C25.0309457,10.2919872 24.7973344,10.168185 24.5935741,10.0034819 C24.4009395,9.83546747 24.2479852,9.62675004 24.145752,9.39239561 C24.0305598,9.13075581 23.9736053,8.84717751 23.9788365,8.56131831 C23.9658818,8.24856777 24.0316776,7.93757419 24.1701787,7.65691067 C24.2902126,7.42332276 24.4639217,7.22156998 24.6770319,7.06823092 C24.9106285,6.91095358 25.1685278,6.79327068 25.440365,6.71991176 C25.7502823,6.63450954 26.066957,6.57590148 26.386898,6.5447337 C26.6929082,6.51996108 26.9973378,6.47848123 27.2988266,6.42047949 C27.5081976,6.38883715 27.7131476,6.33277896 27.909493,6.25344925 C28.0492906,6.20956222 28.1749979,6.12944778 28.2738574,6.02123648 C28.3436876,5.91869662 28.3799634,5.79698235 28.3776707,5.67291732 C28.3955997,5.44658815 28.3086282,5.22456309 28.1417767,5.07071559 C27.9749251,4.9168681 27.7466923,4.84825528 27.5227376,4.88461606 C27.2540237,4.86635457 26.9901032,4.96252614 26.7960445,5.1494201 C26.6496347,5.30757241 26.5490091,5.50262443 26.5049602,5.7136564 L24.3004542,5.7136564 C24.3171517,5.42653577 24.3861364,5.1448847 24.5040097,4.88257911 C24.6408433,4.58962893 24.8419208,4.3313209 25.0922851,4.12686912 C25.3819773,3.89194078 25.7144979,3.71553526 26.071387,3.60744581 C26.5238752,3.47367727 26.9939707,3.40912346 27.4657421,3.41597212 Z M11.4479607,3.39560258 C12.2616587,3.34219603 13.0730406,3.52994821 13.7807066,3.93539543 C14.2473233,4.23583514 14.5527276,4.73170925 14.611213,5.28385908 L12.4331692,5.28385908 C12.405955,5.0704495 12.2758847,4.88396344 12.0850894,4.78480531 C11.7096945,4.61901452 11.2818979,4.61901452 10.9065031,4.78480531 C10.7243311,4.88306994 10.6143995,5.07696743 10.6235609,5.28385908 C10.6182179,5.41174799 10.6732507,5.53471392 10.7721565,5.6158826 C10.8745956,5.69992462 10.9930115,5.76229161 11.1202363,5.79920848 C11.2719612,5.8460208 11.4271468,5.88075723 11.5843429,5.90309314 L12.1400493,5.98660826 L13.0865824,6.16178632 C13.3960531,6.22719363 13.6929757,6.3420551 13.9659421,6.50195766 C14.2330873,6.67860186 14.4518541,6.91360568 14.6051063,7.19044817 C14.7924579,7.5211514 14.8814464,7.89855218 14.8615862,8.27818168 C14.8722426,8.62935969 14.7863411,8.97672469 14.6132485,9.28240008 C14.4442935,9.5647071 14.2114089,9.80333368 13.9333732,9.9790384 C13.6112941,10.1753991 13.2570991,10.3133129 12.887098,10.3864292 C12.4553623,10.469805 12.015669,10.5046494 11.5762006,10.4903139 C11.1120757,10.4963226 10.6490519,10.4436234 10.19813,10.3334684 C9.82212762,10.2459739 9.46495132,10.0914131 9.14371254,9.87719069 C8.86256431,9.69229626 8.62950031,9.4430117 8.46383721,9.14999806 C8.32026229,8.88121756 8.24083651,8.58281754 8.23178396,8.27818168 L10.4362899,8.27818168 C10.4631433,8.52358964 10.5781589,8.75088351 10.7599431,8.91778529 C10.9939665,9.10683822 11.2902683,9.20131301 11.5904495,9.18258933 C11.8269603,9.19152502 12.061595,9.13739542 12.2703248,9.02574386 C12.4726528,8.91602896 12.5938534,8.69962045 12.5817647,8.46965537 C12.5884789,8.30550648 12.5212365,8.1470043 12.3985648,8.03782109 C12.2797614,7.93392875 12.1413218,7.85496396 11.9914538,7.80560832 C11.8119476,7.75185754 11.6290068,7.71034432 11.4438896,7.68135412 L10.7965831,7.57746945 C10.5169628,7.53318265 10.2397704,7.47471467 9.96607672,7.4022914 C9.69250192,7.33865542 9.431661,7.22915089 9.19460142,7.07841569 C8.96874063,6.91822479 8.78163285,6.70941096 8.64703715,6.46732944 C8.49639236,6.16068249 8.42633556,5.82067347 8.44348166,5.47940668 C8.43740876,5.17018101 8.51778022,4.86540614 8.67553492,4.59944248 C8.83524964,4.33445468 9.05399452,4.10998249 9.31469916,3.94354324 C9.60984936,3.75337049 9.93556097,3.6155542 10.2775166,3.53615241 C10.6605255,3.4419797 11.0535606,3.39478306 11.4479607,3.39560258 Z M79.219725,3.39560258 C80.0334231,3.34219603 80.8448049,3.52994821 81.5524709,3.93539543 C82.0190877,4.23583514 82.324492,4.73170925 82.3829773,5.28385908 L80.2049336,5.28385908 C80.1777193,5.0704495 80.0476491,4.88396344 79.8568537,4.78480531 C79.4814588,4.61901452 79.0536623,4.61901452 78.6782674,4.78480531 C78.4960955,4.88306994 78.3861639,5.07696743 78.3953253,5.28385908 C78.3899822,5.41174799 78.445015,5.53471392 78.5439208,5.6158826 C78.6432397,5.70001266 78.7590249,5.76245475 78.8838585,5.79920848 C79.038585,5.84511121 79.1964076,5.87982883 79.3561072,5.90309314 L79.9118137,5.98660826 L80.8827734,6.16178632 C81.1918299,6.22858441 81.4885383,6.34336305 81.7621331,6.50195766 C82.02458,6.66624405 82.2437771,6.89118035 82.4012973,7.1578569 C82.5848571,7.49411043 82.673586,7.87041033 82.6577772,8.24966433 C82.6684336,8.60084233 82.5825322,8.94820734 82.4094395,9.25388272 C82.2404239,9.53614303 82.0075518,9.77475685 81.7295642,9.95052104 C81.4064634,10.1448056 81.0526409,10.2825744 80.683289,10.3579119 C80.2579464,10.449656 79.8237712,10.4940598 79.3886761,10.4903139 C78.9245522,10.4963008 78.4615312,10.4436019 78.0106054,10.3334684 C77.6346449,10.245847 77.2774905,10.0912957 76.956188,9.87719069 C76.6750398,9.69229626 76.4419758,9.4430117 76.2763127,9.14999806 C76.1326686,8.88124486 76.0532384,8.58282828 76.0442594,8.27818168 L78.2161965,8.27818168 C78.2385265,8.52227277 78.3492977,8.74976337 78.5276364,8.91778529 C78.7625014,9.10526803 79.0581828,9.19954498 79.3581428,9.18258933 C79.5973329,9.19239095 79.8348147,9.13825288 80.0461603,9.02574386 C80.2484883,8.91602896 80.3696889,8.69962045 80.3576002,8.46965537 C80.3609955,8.30612907 80.294319,8.14896112 80.1744003,8.03782109 C80.0555968,7.93392875 79.9171573,7.85496396 79.7672893,7.80560832 C79.5852476,7.7509987 79.3995392,7.70947491 79.2115828,7.68135412 L78.5724186,7.57746945 C78.2928002,7.53317231 78.0156083,7.47470444 77.7419122,7.4022914 C77.4671173,7.34247685 77.2056268,7.23269962 76.9704369,7.07841569 C76.7424395,6.92063653 76.5548404,6.71127434 76.4228726,6.46732944 C76.267667,6.16191935 76.1933748,5.82176394 76.2071038,5.47940668 C76.2040573,5.17055118 76.2842172,4.8665785 76.4391571,4.59944248 C76.6020033,4.33418267 76.8234421,4.10980432 77.0864635,3.94354324 C77.3816137,3.75337049 77.7073253,3.6155542 78.049281,3.53615241 C78.4322862,3.44195981 78.8253237,3.39476288 79.219725,3.39560258 Z M59.0595894,3.27338533 C59.5452095,3.26609536 60.0280825,3.34754989 60.4844779,3.51374592 C60.8846975,3.66968638 61.2530754,3.89749216 61.5714642,4.18594079 L61.5897842,4.1900147 C62.0184906,4.58440741 62.3399945,5.08136376 62.5241039,5.63421519 C62.7117449,6.20993286 62.8012021,6.81315121 62.788726,7.41858703 L57.7507277,7.41858703 L57.7507277,7.56117382 C57.8092956,7.93994001 57.9761351,8.2936566 58.2311186,8.5796509 C58.504437,8.83993615 58.8719714,8.97748852 59.248896,8.96056133 C59.6665354,8.99294532 60.068277,8.7935007 60.2951713,8.44113802 L62.5851705,8.44113802 C62.4929005,8.70544606 62.3551184,8.95155602 62.1780595,9.16833065 C61.9445871,9.46189996 61.6639172,9.71453881 61.3475531,9.91589282 C61.0456457,10.1226071 60.7081947,10.2717677 60.3521668,10.3558749 C59.9637823,10.4500779 59.5650193,10.4945674 59.1654383,10.4882769 C58.644556,10.4953434 58.1268915,10.4055532 57.6387721,10.2234729 C57.1985308,10.0584164 56.7972356,9.80388004 56.4601859,9.47591073 C56.1306295,9.15343843 55.8732271,8.76463942 55.704995,8.3352164 C55.3508183,7.40433085 55.3508183,6.37566401 55.704995,5.44477845 C55.8759837,5.01875021 56.1299242,4.6309997 56.4520436,4.30408413 C56.7754593,3.975714 57.1636721,3.71834621 57.5919544,3.54837414 C58.0586721,3.36218479 58.5571722,3.26878149 59.0595894,3.27338533 Z M7.00637992,0.0835151203 L7.00637992,10.4882769 L4.51689629,10.4882769 L4.51689629,6.82175946 L2.44266586,6.82175946 L2.44266586,10.4882769 L0,10.4882769 L0,3.57892845 C0.0407110977,0.531645034 2.5403725,0.0835151203 4.042612,0.0835151203 L7.00637992,0.0835151203 Z M66.5219337,3.4791177 L66.5219337,7.77709096 C66.5438438,8.21955099 66.9087237,8.56703641 67.3514223,8.56703641 C67.7941209,8.56703641 68.1590008,8.21955099 68.1809109,7.77709096 L68.1809109,3.4791177 L70.8088122,3.4791177 L70.8088122,7.77709096 L70.7579234,7.77709096 C70.7798335,8.21955099 71.1447134,8.56703641 71.587412,8.56703641 C72.0301106,8.56703641 72.3949905,8.21955099 72.4169006,7.77709096 L72.4169006,3.4791177 L75.0101975,3.4791177 L75.0101975,7.04786137 C75.0057212,8.92696723 73.4845648,10.4491693 71.6067498,10.4536487 C70.8648671,10.4572911 70.143168,10.2120173 69.556946,9.7570104 L69.4816305,9.7081235 L69.4063149,9.7570104 C68.3802612,10.5543055 66.9895296,10.6958535 65.824073,10.1216091 C64.6586164,9.54736481 63.9227523,8.3579996 63.9286017,7.05804615 L63.9286017,3.4791177 L66.5219337,3.4791177 Z M18.5825805,0 L18.5825805,3.43837861 L18.7230338,3.43837861 C18.944424,3.39549373 19.1692745,3.37299323 19.3947669,3.37115913 C20.3130298,3.35674453 21.1933386,3.71292881 21.8434338,4.35620007 C22.4935289,4.99947133 22.8592814,5.87632656 22.8592814,6.79120515 L22.8592814,10.3762445 L20.2537711,10.3762445 L20.2537711,6.06197556 C20.2689418,5.75561354 20.1142439,5.46579757 19.851349,5.30806548 C19.5884542,5.1503334 19.2601108,5.1503334 18.997216,5.30806548 C18.7343211,5.46579757 18.5796232,5.75561354 18.5947939,6.06197556 L18.5947939,10.3884662 L15.9892836,10.3884662 L15.9892836,0 L18.5825805,0 Z M36.2735881,3.73781087 L36.2735881,5.465148 L35.7545216,5.465148 C35.0575139,5.465148 34.4924775,6.03057277 34.4924775,6.72805957 L34.4924775,10.3803184 L32.0029939,10.3803184 L32.0050295,6.66084009 C32.0095024,5.04835331 33.3146716,3.74228692 34.9260507,3.73781087 L36.2735881,3.73781087 Z M49.6838236,0.213880186 L51.7763741,4.88054215 L51.7763741,0.21591714 L54.2190399,0.21591714 L54.2190399,10.2988402 L51.7641607,10.2968033 L49.6899303,5.67088037 L49.6899303,10.2968033 L47.2472644,10.2968033 L47.2411578,0.213880186 L49.6838236,0.213880186 Z M28.4590929,7.08860046 L28.2758929,7.18026339 C28.1442118,7.24529266 28.0081817,7.30110335 27.8687819,7.34729364 L27.3130755,7.49599129 C27.0148901,7.53805206 26.7305655,7.64893118 26.4825691,7.819867 C26.3211789,7.96867927 26.2333406,8.18097699 26.2423736,8.40039893 C26.2275166,8.64263174 26.341201,8.87480038 26.5416002,9.01148518 C26.7280083,9.12874733 26.9443186,9.1895822 27.1644799,9.18666324 C27.482975,9.18905691 27.792906,9.08352179 28.0438397,8.88723098 C28.3329628,8.64094094 28.4847326,8.26960877 28.4509506,7.89116039 L28.4590929,7.08860046 Z M41.1202442,5.25737867 C40.6922044,5.22318143 40.2715789,5.38397339 39.9753411,5.69503926 C39.6791033,6.00610514 39.5388476,6.43426921 39.5935781,6.86046159 C39.5935781,7.97467551 40.0658268,8.46354451 41.1202442,8.46354451 L41.6678085,8.46354451 L41.6678085,5.25737867 Z M59.0860517,4.77869445 C58.733882,4.76253723 58.3923535,4.90177411 58.151732,5.15960487 C57.9198436,5.43854671 57.7653973,5.77364449 57.7039099,6.131232 L57.7039099,6.27992966 L60.3806646,6.27992966 L60.3806646,6.13937982 C60.3413501,5.77513466 60.1938773,5.43103152 59.9572691,5.15145706 C59.7346703,4.90658943 59.416751,4.77056322 59.0860517,4.77869445 Z M3.95915425,1.96973467 C3.58087637,1.93052426 3.20333309,2.05043347 2.91688776,2.30076253 C2.63044244,2.5510916 2.46087567,2.90931046 2.44877253,3.28968096 L2.44877253,5.08220062 L4.52300296,5.08220062 L4.50671852,1.96973467 Z" id="Combined-Shape" fill="#C62326"></path>
                </g>
            </g>
        </g>
    </g>
</svg>